<?xml version="1.0" encoding="utf-8" ?>
<svg xmlns="http://www.w3.org/2000/svg" xmlns:xlink="http://www.w3.org/1999/xlink" width="512" height="512">
	<path transform="scale(0.5 0.5)" fill="#282828" d="M529.875 952.132L501.417 952.169C489.697 952.119 478.704 951.828 467.108 950.629L441.256 947.658C374.347 938.174 316.466 916.076 260.31 877.352C143.68 796.925 81.1117 674.662 72.7398 533.485L72.4719 511.89C72.4754 297.463 213.4 118.751 423.25 78.7004C446.093 74.3406 469.046 72.6548 492.208 71.2809C681.027 65.347 843.115 159.62 916 334.25C920.112 344.103 924.404 354.287 927.511 364.5L939.963 408.25C943.636 425.144 946.357 442.293 948.017 459.5L949.944 474.635C950.213 477.317 950.053 480.055 950.203 482.75L950.968 532.604L945.016 590.175C912.196 793.875 738.392 950.421 529.875 952.132ZM524.779 104.854L524.224 296.01C524.217 301.647 523.315 308.59 524.383 314.043C568.794 313.74 613.808 306.277 656.384 293.856L677.653 287.024C675.087 277.158 671.326 267.535 667.768 257.989C644.485 195.529 590.637 126.153 524.779 104.854ZM499.008 105.75C491.179 107.63 483.902 111.586 477.496 114.949C427.167 141.369 387.144 185.287 364.513 237.299L345.851 286.918C348.556 288.473 352.02 289.2 355 290.073L368.769 294.16C418.558 307.249 447.388 311.555 499.355 314.013L499.76 312.815C499.304 306.854 499.633 300.589 499.591 294.587L499.536 112.968C499.536 111.191 500.069 107.131 499.205 105.702L499.008 105.75ZM588.951 108.25L615.876 131.179C648.914 162.199 669.766 195.726 687.512 236.859C693.371 250.439 697.393 264.925 703.533 278.319C726.459 266.551 750.98 257.244 772.753 243.339L806.636 222.135C798.285 210.897 785.46 200.761 774.591 192.155C726.329 153.947 671.817 126.27 611.75 112.978L598.013 110.021C595.442 109.416 592.1 108.202 589.481 108.146L588.951 108.25ZM432.791 108.68C364.918 117.061 281.165 161.426 232.853 207.412L223.62 216.222C221.531 218.137 219.087 219.997 217.31 222.184L253.376 244.754L320.386 277.558C344.385 215.223 364.353 165.553 419.179 121.55C424.382 117.373 429.597 112.444 435.092 108.75C434.173 108.162 433.827 108.493 432.791 108.68ZM822.818 240.68C803.953 255.667 782.347 268.957 760.845 279.822L731.533 293.416C725.469 296.244 717.758 301.224 711.179 302.25C710.805 303.38 711.981 305.971 712.339 307.25L730.771 370.797C732.241 376.081 733.165 381.64 734.337 387L739.112 408.781C742.869 430.334 745.221 452.43 746.803 474.25L747.524 500.3L808.967 500.334L919.279 500.265C919.561 409.98 882.197 309.526 822.818 240.68ZM201.464 240.762C177.242 267.483 155.144 304.779 140.702 337.286L133.695 355.034C119.711 390.105 111.056 424.833 106.871 462.277L104.826 490.676C104.727 493.877 104.377 497.182 104.512 500.376L215.75 500.334L276.188 500.378L276.928 472.983C279.568 435.821 285.328 398.825 294.466 362.707L301.048 339.906C304.586 327.737 307.981 315.116 312.714 303.366C309.85 300.946 305.569 299.628 302.177 298.053L250.866 273.109C233.35 263.779 217.58 252.218 201.464 240.762ZM337.745 311.25C318.828 360.899 307.479 415.229 303.237 468.021L301.784 546.359L306.116 589.908C308.139 605.741 312.323 628.933 317.033 644.5L339.456 711.761C343.319 709.978 347.383 708.913 351.439 707.702L417.922 692.66L459.113 687.932C463.726 687.509 468.25 686.526 472.865 686.247L515.415 685.789C528.463 685.769 541.741 685.356 554.75 686.424L592 690.653L663.135 705.387C669.45 707.1 675.934 708.703 682.053 711.031L684.253 711.895C685.138 712.229 684.811 712.122 685.88 712.195L686.25 710.953L709.142 633.756C733.09 526.85 723.792 413.666 686.117 310.997L671.912 315.815C589.152 340.305 499.264 347.925 414.212 331.32L349.176 315.019C345.465 313.727 341.618 311.963 337.745 311.25ZM104.545 524.799C103.595 529.713 104.703 534.724 105.014 539.708L105.971 557.851C108.073 580.861 112.391 604.897 119.039 627L132.488 668C148.579 710.283 172.699 748.531 201.512 783.21C220.252 765.861 248.81 751.162 271.31 739.821L313.719 720.333C297.371 681.572 283.595 621.959 279.607 580.5L276.701 543.731C276.39 537.63 277.091 530.914 276.057 524.954L104.545 524.799ZM747.737 524.966C746.725 572.911 741.427 610.834 730.042 656.75L715.508 708.25C714.088 712.413 712.255 716.455 711.031 720.669C719.101 724.963 727.863 728.041 736.213 731.783L773.244 750.349C792.121 760.611 804.981 771.419 821.91 782.534L848.407 748.974C877.925 705.037 897.873 657.78 909.767 606.242L915.44 575.594C918.83 559.428 919.017 541.432 919.413 525.014L747.737 524.966ZM488.688 711.72C440.29 712.651 391.279 721.028 345.314 736.269L360.259 776.024C371.55 805.492 392.379 839.096 414.847 860.478C440.436 885.717 467.123 903.596 499.763 917.775L499.539 711.535L488.688 711.72ZM524.453 711.82L524.636 916.686C558.929 905.936 590.803 879.99 615.172 854.52C639.023 827.723 655.992 796.401 668.695 762.981L677.947 736.21C641.352 722.378 565.988 709.056 524.453 711.82ZM320.185 745.469C307.79 750.669 221.273 793.435 217.255 801.521C259.551 842.186 301.761 873.551 357.871 894.478C377.398 902.066 416.224 914.757 437.541 916.22C428.395 907.046 417.312 899.507 407.677 890.724C380.349 865.811 358.609 835.454 343.094 801.889L328.39 766.648C325.764 759.727 323.633 752.001 320.185 745.469ZM702.687 745.587C686.318 804.399 652.188 862.492 604.796 901.115C598.785 906.014 592.305 910.853 586.922 916.452C603.284 913.205 619.325 910.112 635.348 905.306L668.664 893.498C709.7 876.834 777.096 837.191 805.711 801.251C787.858 786.809 749.974 766.556 729.714 757.182L711.824 749.432C708.827 748.183 705.505 747.183 702.687 745.587Z"/>
	<path transform="scale(0.5 0.5)" fill="#fbcb3b" d="M513.434 609.25C506.469 607.736 462.343 638.028 451.102 642.167L447.034 643.454C430.469 647.183 431.058 629.258 431.438 618.677C431.713 611.023 437.478 563.02 436.951 560.768C435.434 554.281 392.177 524.869 383.176 513.841C373.728 502.266 382.622 492.039 394.722 488.571C414.502 482.901 443.379 483.463 464.851 479.692C470.708 471.122 474.965 461.618 479.216 452.179L492.782 422.898C496.658 414.945 500.632 409.55 509.295 406.569C511.262 406.495 513.572 406.216 515.469 406.802L516 406.981C525.154 409.919 528.997 418.274 532.77 426.422L554.992 473.75C558.219 479.979 559.834 479.955 566.333 480.953C583.919 483.654 635.558 482.473 642.408 498.331C648.269 511.899 632.536 522.139 623.809 529.392C612.929 538.436 601.127 547.042 591.249 557.185C585.595 562.992 587.988 566.792 588.75 574.408L591.912 612.487C592.602 621.897 597.524 637.484 585.821 642.3L584.64 642.791C574.202 647.122 558.213 634.551 550.026 629.49C538.245 622.207 526.202 614.653 513.434 609.25Z"/>
</svg>
