<?xml version="1.0" standalone="no"?>
<!DOCTYPE svg PUBLIC "-//W3C//DTD SVG 20010904//EN"
 "http://www.w3.org/TR/2001/REC-SVG-20010904/DTD/svg10.dtd">
<svg version="1.0" xmlns="http://www.w3.org/2000/svg"
 width="512.000000pt" height="512.000000pt" viewBox="0 0 512.000000 512.000000"
 preserveAspectRatio="xMidYMid meet">
<metadata>
Created by potrace 1.14, written by Peter Selinger 2001-2017
</metadata>
<g transform="translate(0.000000,512.000000) scale(0.100000,-0.100000)"
fill="#000000" stroke="none">
<path d="M2340 5109 c-599 -51 -1150 -309 -1581 -739 -207 -207 -340 -385
-465 -624 -416 -798 -384 -1757 83 -2520 206 -335 527 -654 863 -856 300 -181
625 -296 995 -351 137 -21 539 -18 685 4 566 88 1051 331 1447 725 395 394
639 881 730 1457 27 173 25 558 -5 730 -82 467 -226 812 -490 1165 -99 132
-337 376 -462 472 -524 404 -1157 592 -1800 537z m549 -936 c178 -362 329
-663 335 -669 6 -6 333 -57 726 -113 393 -56 723 -105 733 -109 14 -6 -94
-115 -517 -527 -421 -409 -534 -524 -530 -540 10 -45 244 -1421 244 -1436 0
-12 -184 81 -652 327 -359 189 -659 344 -667 344 -8 0 -306 -154 -663 -341
-357 -188 -651 -339 -654 -336 -4 4 225 1372 242 1442 4 16 -107 129 -530 540
-507 492 -534 520 -508 527 15 4 344 52 732 108 388 56 710 107 716 114 7 6
157 307 335 669 178 361 326 657 329 657 3 0 151 -296 329 -657z"/>
</g>
</svg>
